<mxfile host="app.diagrams.net" agent="Mozilla/5.0 (Windows NT 10.0; Win64; x64) AppleWebKit/537.36 (KHTML, like Gecko) Chrome/136.0.0.0 Safari/537.36" version="27.1.3">
  <diagram name="第 1 页" id="j9HyFQVSKQDjQgBfaKdT">
    <mxGraphModel dx="1489" dy="1922" grid="1" gridSize="10" guides="1" tooltips="1" connect="1" arrows="1" fold="1" page="1" pageScale="1" pageWidth="827" pageHeight="1169" math="0" shadow="0">
      <root>
        <mxCell id="0" />
        <mxCell id="1" parent="0" />
        <mxCell id="50CWR8Ax96Vr4wXgpIUp-59" value="" style="whiteSpace=wrap;html=1;" vertex="1" parent="1">
          <mxGeometry x="843" y="215" width="120" height="180" as="geometry" />
        </mxCell>
        <mxCell id="50CWR8Ax96Vr4wXgpIUp-37" value="SQL" style="rounded=1;whiteSpace=wrap;html=1;verticalAlign=top;" vertex="1" parent="1">
          <mxGeometry x="1109" y="180" width="490" height="150" as="geometry" />
        </mxCell>
        <mxCell id="50CWR8Ax96Vr4wXgpIUp-34" value="Job" style="rounded=1;whiteSpace=wrap;html=1;verticalAlign=top;" vertex="1" parent="1">
          <mxGeometry x="1119" y="210" width="350" height="110" as="geometry" />
        </mxCell>
        <mxCell id="50CWR8Ax96Vr4wXgpIUp-2" value="" style="endArrow=classic;html=1;rounded=0;" edge="1" parent="1">
          <mxGeometry width="50" height="50" relative="1" as="geometry">
            <mxPoint x="439" y="260" as="sourcePoint" />
            <mxPoint x="549" y="260" as="targetPoint" />
          </mxGeometry>
        </mxCell>
        <mxCell id="50CWR8Ax96Vr4wXgpIUp-3" value="Spark事件流" style="text;html=1;align=center;verticalAlign=middle;resizable=0;points=[];autosize=1;strokeColor=none;fillColor=none;" vertex="1" parent="1">
          <mxGeometry x="449" y="230" width="90" height="30" as="geometry" />
        </mxCell>
        <mxCell id="50CWR8Ax96Vr4wXgpIUp-53" style="edgeStyle=orthogonalEdgeStyle;rounded=0;orthogonalLoop=1;jettySize=auto;html=1;entryX=0;entryY=0.5;entryDx=0;entryDy=0;" edge="1" parent="1" source="50CWR8Ax96Vr4wXgpIUp-7" target="50CWR8Ax96Vr4wXgpIUp-16">
          <mxGeometry relative="1" as="geometry" />
        </mxCell>
        <mxCell id="50CWR8Ax96Vr4wXgpIUp-54" style="edgeStyle=orthogonalEdgeStyle;rounded=0;orthogonalLoop=1;jettySize=auto;html=1;entryX=0;entryY=0.5;entryDx=0;entryDy=0;" edge="1" parent="1" source="50CWR8Ax96Vr4wXgpIUp-7" target="50CWR8Ax96Vr4wXgpIUp-12">
          <mxGeometry relative="1" as="geometry" />
        </mxCell>
        <mxCell id="50CWR8Ax96Vr4wXgpIUp-55" style="edgeStyle=orthogonalEdgeStyle;rounded=0;orthogonalLoop=1;jettySize=auto;html=1;exitX=1;exitY=0.5;exitDx=0;exitDy=0;entryX=0;entryY=0.5;entryDx=0;entryDy=0;" edge="1" parent="1" source="50CWR8Ax96Vr4wXgpIUp-7" target="50CWR8Ax96Vr4wXgpIUp-13">
          <mxGeometry relative="1" as="geometry" />
        </mxCell>
        <mxCell id="50CWR8Ax96Vr4wXgpIUp-56" style="edgeStyle=orthogonalEdgeStyle;rounded=0;orthogonalLoop=1;jettySize=auto;html=1;exitX=1;exitY=0.5;exitDx=0;exitDy=0;entryX=0;entryY=0.5;entryDx=0;entryDy=0;" edge="1" parent="1" source="50CWR8Ax96Vr4wXgpIUp-7" target="50CWR8Ax96Vr4wXgpIUp-14">
          <mxGeometry relative="1" as="geometry" />
        </mxCell>
        <mxCell id="50CWR8Ax96Vr4wXgpIUp-57" style="edgeStyle=orthogonalEdgeStyle;rounded=0;orthogonalLoop=1;jettySize=auto;html=1;exitX=1;exitY=0.5;exitDx=0;exitDy=0;entryX=0;entryY=0.5;entryDx=0;entryDy=0;" edge="1" parent="1" source="50CWR8Ax96Vr4wXgpIUp-7" target="50CWR8Ax96Vr4wXgpIUp-15">
          <mxGeometry relative="1" as="geometry" />
        </mxCell>
        <mxCell id="50CWR8Ax96Vr4wXgpIUp-7" value="事件分类器" style="rounded=1;whiteSpace=wrap;html=1;" vertex="1" parent="1">
          <mxGeometry x="549" y="240" width="100" height="40" as="geometry" />
        </mxCell>
        <mxCell id="50CWR8Ax96Vr4wXgpIUp-12" value="SQL事件处理器" style="rounded=1;whiteSpace=wrap;html=1;" vertex="1" parent="1">
          <mxGeometry x="699" y="190" width="110" height="40" as="geometry" />
        </mxCell>
        <mxCell id="50CWR8Ax96Vr4wXgpIUp-13" value="Job事件处理器" style="rounded=1;whiteSpace=wrap;html=1;" vertex="1" parent="1">
          <mxGeometry x="699" y="240" width="110" height="40" as="geometry" />
        </mxCell>
        <mxCell id="50CWR8Ax96Vr4wXgpIUp-14" value="Stage事件处理器" style="rounded=1;whiteSpace=wrap;html=1;" vertex="1" parent="1">
          <mxGeometry x="699" y="290" width="110" height="40" as="geometry" />
        </mxCell>
        <mxCell id="50CWR8Ax96Vr4wXgpIUp-15" value="Task事件处理器" style="rounded=1;whiteSpace=wrap;html=1;" vertex="1" parent="1">
          <mxGeometry x="699" y="340" width="110" height="40" as="geometry" />
        </mxCell>
        <mxCell id="50CWR8Ax96Vr4wXgpIUp-16" value="Session事件处理器" style="rounded=1;whiteSpace=wrap;html=1;dashed=1;" vertex="1" parent="1">
          <mxGeometry x="699" y="140" width="110" height="40" as="geometry" />
        </mxCell>
        <mxCell id="50CWR8Ax96Vr4wXgpIUp-28" value="Stage" style="rounded=1;whiteSpace=wrap;html=1;verticalAlign=top;" vertex="1" parent="1">
          <mxGeometry x="1129" y="240" width="190" height="70" as="geometry" />
        </mxCell>
        <mxCell id="50CWR8Ax96Vr4wXgpIUp-29" value="Task" style="rounded=1;whiteSpace=wrap;html=1;verticalAlign=middle;align=center;" vertex="1" parent="1">
          <mxGeometry x="1139" y="270" width="50" height="30" as="geometry" />
        </mxCell>
        <mxCell id="50CWR8Ax96Vr4wXgpIUp-30" value="Task" style="rounded=1;whiteSpace=wrap;html=1;verticalAlign=middle;align=center;" vertex="1" parent="1">
          <mxGeometry x="1199" y="270" width="50" height="30" as="geometry" />
        </mxCell>
        <mxCell id="50CWR8Ax96Vr4wXgpIUp-31" value="Task" style="rounded=1;whiteSpace=wrap;html=1;verticalAlign=middle;align=center;" vertex="1" parent="1">
          <mxGeometry x="1259" y="270" width="50" height="30" as="geometry" />
        </mxCell>
        <mxCell id="50CWR8Ax96Vr4wXgpIUp-32" value="Stage" style="rounded=1;whiteSpace=wrap;html=1;verticalAlign=top;" vertex="1" parent="1">
          <mxGeometry x="1329" y="240" width="60" height="70" as="geometry" />
        </mxCell>
        <mxCell id="50CWR8Ax96Vr4wXgpIUp-33" value="Stage" style="rounded=1;whiteSpace=wrap;html=1;verticalAlign=top;" vertex="1" parent="1">
          <mxGeometry x="1399" y="240" width="60" height="70" as="geometry" />
        </mxCell>
        <mxCell id="50CWR8Ax96Vr4wXgpIUp-35" value="Job" style="rounded=1;whiteSpace=wrap;html=1;verticalAlign=top;" vertex="1" parent="1">
          <mxGeometry x="1479" y="210" width="50" height="110" as="geometry" />
        </mxCell>
        <mxCell id="50CWR8Ax96Vr4wXgpIUp-36" value="Job" style="rounded=1;whiteSpace=wrap;html=1;verticalAlign=top;" vertex="1" parent="1">
          <mxGeometry x="1539" y="210" width="50" height="110" as="geometry" />
        </mxCell>
        <mxCell id="50CWR8Ax96Vr4wXgpIUp-38" value="SQL Start" style="rounded=1;whiteSpace=wrap;html=1;" vertex="1" parent="1">
          <mxGeometry x="854" y="190" width="100" height="20" as="geometry" />
        </mxCell>
        <mxCell id="50CWR8Ax96Vr4wXgpIUp-39" style="edgeStyle=orthogonalEdgeStyle;rounded=0;orthogonalLoop=1;jettySize=auto;html=1;entryX=0;entryY=0.133;entryDx=0;entryDy=0;entryPerimeter=0;" edge="1" parent="1" source="50CWR8Ax96Vr4wXgpIUp-38" target="50CWR8Ax96Vr4wXgpIUp-37">
          <mxGeometry relative="1" as="geometry" />
        </mxCell>
        <mxCell id="50CWR8Ax96Vr4wXgpIUp-40" value="创建一个新的SQL对象" style="text;html=1;align=center;verticalAlign=middle;resizable=0;points=[];autosize=1;strokeColor=none;fillColor=none;" vertex="1" parent="1">
          <mxGeometry x="959" y="170" width="140" height="30" as="geometry" />
        </mxCell>
        <mxCell id="50CWR8Ax96Vr4wXgpIUp-41" value="Job Start" style="rounded=1;whiteSpace=wrap;html=1;" vertex="1" parent="1">
          <mxGeometry x="854" y="220" width="100" height="20" as="geometry" />
        </mxCell>
        <mxCell id="50CWR8Ax96Vr4wXgpIUp-42" value="Stage Start" style="rounded=1;whiteSpace=wrap;html=1;" vertex="1" parent="1">
          <mxGeometry x="854" y="250" width="100" height="20" as="geometry" />
        </mxCell>
        <mxCell id="50CWR8Ax96Vr4wXgpIUp-43" value="Task Start" style="rounded=1;whiteSpace=wrap;html=1;" vertex="1" parent="1">
          <mxGeometry x="854" y="280" width="100" height="20" as="geometry" />
        </mxCell>
        <mxCell id="50CWR8Ax96Vr4wXgpIUp-44" value="Task End" style="rounded=1;whiteSpace=wrap;html=1;" vertex="1" parent="1">
          <mxGeometry x="854" y="310" width="100" height="20" as="geometry" />
        </mxCell>
        <mxCell id="50CWR8Ax96Vr4wXgpIUp-45" value="Stage End" style="rounded=1;whiteSpace=wrap;html=1;" vertex="1" parent="1">
          <mxGeometry x="854" y="340" width="100" height="20" as="geometry" />
        </mxCell>
        <mxCell id="50CWR8Ax96Vr4wXgpIUp-46" value="Job End" style="rounded=1;whiteSpace=wrap;html=1;" vertex="1" parent="1">
          <mxGeometry x="854" y="370" width="100" height="20" as="geometry" />
        </mxCell>
        <mxCell id="50CWR8Ax96Vr4wXgpIUp-51" style="edgeStyle=orthogonalEdgeStyle;rounded=0;orthogonalLoop=1;jettySize=auto;html=1;entryX=0.5;entryY=1;entryDx=0;entryDy=0;" edge="1" parent="1" source="50CWR8Ax96Vr4wXgpIUp-47" target="50CWR8Ax96Vr4wXgpIUp-37">
          <mxGeometry relative="1" as="geometry" />
        </mxCell>
        <mxCell id="50CWR8Ax96Vr4wXgpIUp-47" value="SQL End" style="rounded=1;whiteSpace=wrap;html=1;" vertex="1" parent="1">
          <mxGeometry x="854" y="400" width="100" height="20" as="geometry" />
        </mxCell>
        <mxCell id="50CWR8Ax96Vr4wXgpIUp-52" value="补充SQL运行耗时指标，将SQL及所属Job、Stage、Task信息进行持久化&lt;br&gt;持久化完成后从内存中删除" style="text;html=1;align=center;verticalAlign=middle;resizable=0;points=[];autosize=1;strokeColor=none;fillColor=none;" vertex="1" parent="1">
          <mxGeometry x="959" y="410" width="410" height="40" as="geometry" />
        </mxCell>
        <mxCell id="50CWR8Ax96Vr4wXgpIUp-58" value="Spark JDBCServer" style="rounded=1;whiteSpace=wrap;html=1;" vertex="1" parent="1">
          <mxGeometry x="339" y="240" width="100" height="40" as="geometry" />
        </mxCell>
        <mxCell id="50CWR8Ax96Vr4wXgpIUp-61" style="edgeStyle=orthogonalEdgeStyle;rounded=0;orthogonalLoop=1;jettySize=auto;html=1;exitX=1;exitY=0.5;exitDx=0;exitDy=0;entryX=-0.001;entryY=0.831;entryDx=0;entryDy=0;entryPerimeter=0;" edge="1" parent="1" source="50CWR8Ax96Vr4wXgpIUp-59" target="50CWR8Ax96Vr4wXgpIUp-37">
          <mxGeometry relative="1" as="geometry" />
        </mxCell>
        <mxCell id="50CWR8Ax96Vr4wXgpIUp-62" value="将Job、Stage、Task&lt;span style=&quot;background-color: transparent; color: light-dark(rgb(0, 0, 0), rgb(255, 255, 255));&quot;&gt;指标&lt;/span&gt;&lt;div&gt;&lt;span style=&quot;background-color: transparent; color: light-dark(rgb(0, 0, 0), rgb(255, 255, 255));&quot;&gt;解析后组装入SQL对象&lt;/span&gt;&lt;/div&gt;" style="text;html=1;align=center;verticalAlign=middle;resizable=0;points=[];autosize=1;strokeColor=none;fillColor=none;" vertex="1" parent="1">
          <mxGeometry x="954" y="265" width="160" height="40" as="geometry" />
        </mxCell>
        <mxCell id="50CWR8Ax96Vr4wXgpIUp-63" value="额外优化点：从Session事件获取SQL的运行报错信息（原生SparkUI无法查看到这个信息）" style="rounded=1;whiteSpace=wrap;html=1;" vertex="1" parent="1">
          <mxGeometry x="579" y="40" width="200" height="60" as="geometry" />
        </mxCell>
        <mxCell id="50CWR8Ax96Vr4wXgpIUp-65" value="" style="endArrow=classic;html=1;rounded=0;exitX=0.5;exitY=1;exitDx=0;exitDy=0;entryX=0.5;entryY=0;entryDx=0;entryDy=0;" edge="1" parent="1" source="50CWR8Ax96Vr4wXgpIUp-63" target="50CWR8Ax96Vr4wXgpIUp-16">
          <mxGeometry width="50" height="50" relative="1" as="geometry">
            <mxPoint x="519" y="170" as="sourcePoint" />
            <mxPoint x="569" y="120" as="targetPoint" />
          </mxGeometry>
        </mxCell>
        <mxCell id="50CWR8Ax96Vr4wXgpIUp-66" value="Spark JDBCServer" style="rounded=1;whiteSpace=wrap;html=1;" vertex="1" parent="1">
          <mxGeometry x="540" y="-190" width="100" height="40" as="geometry" />
        </mxCell>
      </root>
    </mxGraphModel>
  </diagram>
</mxfile>
